<svg xmlns="http://www.w3.org/2000/svg" width="243.511" height="40.805" viewBox="0 0 243.511 40.805">
  <g id="Page-1" transform="translate(0 0)">
    <g id="logo-puma-energy">
      <path id="Fill-1" d="M34.177,15.7H31.869L34.1,12.73h1.775s.037,0,.1,0c.28,0,1.054.048,1.205.56.229.779-.671,1.767-1.076,2.006a3.926,3.926,0,0,1-1.926.411m67.813.132H96.847L98.9,13.061h3.461a.745.745,0,0,1,.81.5.9.9,0,0,1-.076.68l-1.1,1.594m-8.959,5.093h4.777l-2.459,3.231h7.011s6.411-8.1,6.906-8.825a5.148,5.148,0,0,0,.139-5.275c-1.217-2.061-3.953-2.138-4.36-2.138H95.757L83.616,24.159h6.918l2.5-3.231M71.247,7.965,59.015,24.25h6.729l6.237-7.779.354,3.819,7.047-3.59-5.728,7.5h7.057L92.892,7.921H84.843l-7.1,4.23L77.29,7.965H71.247m-30.583.08h-.151l-10.647.041-12,16.192,6.7-.012,2.916-3.616h6.4c.164.009.33.01.495.01,4.788,0,6.7-2.955,6.7-2.955l2.331-3.157a5.223,5.223,0,0,0,.759-4.467c-.708-1.9-2.889-2.037-3.51-2.037m9.342-.08L42.415,18.018a4.38,4.38,0,0,0-.737,3.637,4.68,4.68,0,0,0,4.056,2.912l3.588.18s.29.019.734.019a12.369,12.369,0,0,0,4.448-.7A13.887,13.887,0,0,0,58.56,21.11c.227-.272,10.048-13.189,10.048-13.189H60.916L53.375,18.336a2.993,2.993,0,0,1-2.457,1.181c-.825,0-1.863-.954-.724-2.227.47-.529,7.136-9.325,7.136-9.325H50.006m60.059,23.059H0L23.194,0H133.257L110.065,31.024" fill="#037042" fill-rule="evenodd"/>
      <path id="Fill-15" d="M175.37,17.485a20.681,20.681,0,0,1,6.715,1.437c3.649,1.294,7.923,2.361,7.923,2.361,7.843,1.144,17.058,4.646,18.885,5.18a10.448,10.448,0,0,0,2.659.485c.71,0,1.225-.194,1.293-.715.15-1.067-1.523-1.067-2.586-1.067a11.1,11.1,0,0,1-2.966-.761s-4.957-2.969-6.627-4.11-2.055-2.136-.759-2.362a4.249,4.249,0,0,1,.748-.065c1,0,1.938.306,2.975.367,1.3.078,1.913-.076,2.9.687a1.35,1.35,0,0,0,.81.339.759.759,0,0,0,.633-.339,9.425,9.425,0,0,0,2.127-1.9c.533-.837.076-1.219.076-1.219s-.3-.762-1.137-2.893c-.735-1.887-3.092-2.225-3.828-2.225a.971.971,0,0,0-.2.015.466.466,0,0,1-.1.013.647.647,0,0,1-.439-.242l-.761-.988s-2.258,1.842-3.919,1.842a1.962,1.962,0,0,1-.265-.015c-2.966-.405-3.116-2.057-11.266-3.048a36.624,36.624,0,0,0-4.373-.234,110.2,110.2,0,0,0-17.943,1.988,8.583,8.583,0,0,1-1.357.092,23.943,23.943,0,0,1-3.523-.323,101.616,101.616,0,0,0-12.814-.745,138.256,138.256,0,0,0-14.446.745s-2.51.307-2.36,1.068,2.206.762,2.206.762l.445,0c1.09-.015,7.313-.831,11.976-.831h.138c4.665.015,10.126.447,10.126.447h.053a39.67,39.67,0,0,1,4.815.508A2.573,2.573,0,0,1,162.95,12.8c.227.356.124.773-.306,1.373a21.371,21.371,0,0,1-3.535,2.868,5.158,5.158,0,0,1-2.839.612c-.483,0-.962-.022-1.446-.042h-.138a2.422,2.422,0,0,0-2.053.941,21.9,21.9,0,0,1-4.778,3.626,14.438,14.438,0,0,0-1.76,1.1,7.659,7.659,0,0,1-2.9.83c-.928.081-1,.48-1,.48l-.687,1.157c-.392.61.315.647.315.647a13.081,13.081,0,0,0,2.144.207c2.46,0,3.676-1.072,6.831-2.968,2.685-1.615,4.246-1.962,5.8-1.962.8,0,1.6.089,2.56.151.621.035,1.231.064,1.85.064a9.619,9.619,0,0,0,4.32-.826,63.729,63.729,0,0,1,6.933-3.047,8.909,8.909,0,0,1,3.107-.524m44.947,13.539H110.064L133.256,0H243.511L220.317,31.024" fill="#d91f26" fill-rule="evenodd"/>
      <g id="Group" transform="translate(21 33.805)">
        <path id="Fill-20" d="M3.354,6.85H.5c-.149,0-.186-.023-.186-.183V1.08C.313.924.35.9.5.9H3.341c.177,0,.227.018.227.1l-.037.12L3.367,1.7a.166.166,0,0,1-.191.138H1.487V3.273H2.96c.165,0,.191.024.191.183v.573c0,.155-.038.179-.191.179H1.487v1.7H3.341c.164,0,.19.024.19.183v.571c0,.16-.026.183-.177.183" fill="#231f20" fill-rule="evenodd"/>
        <path id="Fill-22" d="M18.789,6.85h-.572c-.125,0-.151-.017-.2-.121L16.432,3.766a4.3,4.3,0,0,1-.495-1.181h-.023c0,.113.023.557.023.955V6.667c0,.16-.023.183-.177.183h-.633c-.153,0-.178-.023-.178-.183V1.08c0-.156.025-.18.178-.18h.709c.128,0,.154.018.2.111L17.471,3.7a6.7,6.7,0,0,1,.507,1.262H18c0-.276-.026-.884-.026-1.131V1.08c0-.156.039-.18.177-.18h.634c.153,0,.19.024.19.18V6.667c0,.16-.025.183-.19.183" fill="#231f20" fill-rule="evenodd"/>
        <path id="Fill-24" d="M33.783,6.85H30.931c-.153,0-.191-.023-.191-.183V1.08c0-.156.038-.18.191-.18h2.851C33.946.9,34,.918,34,1l-.025.12-.163.583a.185.185,0,0,1-.2.138H31.92V3.273H33.39c.163,0,.189.024.189.183v.573c0,.155-.038.179-.189.179H31.92v1.7h1.863c.152,0,.177.024.177.183v.571c0,.16-.025.183-.177.183" fill="#231f20" fill-rule="evenodd"/>
        <g id="Group-28" transform="translate(45)">
          <path id="Fill-26" d="M1.507,1.815V3.478h.227c.57,0,1.053-.086,1.053-.883,0-.758-.507-.78-.95-.78h-.33M3.3,7c-.05,0-.113-.106-.2-.271L1.925,4.394H1.507V6.667c0,.159-.025.182-.178.182H.519c-.14,0-.179-.023-.179-.182V1.08C.34.924.379.9.519.9H1.925C2.6.9,3.952.944,3.952,2.576a1.6,1.6,0,0,1-.987,1.608L4.255,6.5l.078.165-.179.108-.734.206L3.3,7" fill="#231f20" fill-rule="evenodd"/>
        </g>
        <g id="Group-31" transform="translate(60)">
          <path id="Fill-29" d="M2.627,7C1.094,7,.295,6.008.295,3.908c0-2.062.8-3.152,2.346-3.152a2.373,2.373,0,0,1,1.622.527l-.053.13-.276.574-.1.086A2.447,2.447,0,0,0,2.7,1.691c-.888,0-1.166.826-1.166,2.155C1.538,5.2,1.753,6.06,2.7,6.06a1.457,1.457,0,0,0,.622-.138V4.662H2.667c-.141,0-.18-.026-.18-.181V3.908c0-.157.039-.183.18-.183h1.52c.138,0,.176.026.176.183V6.322c0,.366-1.025.678-1.736.678" fill="#231f20" fill-rule="evenodd"/>
        </g>
        <path id="Fill-32" d="M77.912,6.85h-.8c-.154,0-.191-.023-.191-.183V4.412L75.287,1.245l-.051-.179.178-.1.876-.14.087-.006L76.5.936l.712,1.484a5.926,5.926,0,0,1,.342.946h.023a6.22,6.22,0,0,1,.382-1.013L78.608,1c.075-.173.1-.173.141-.173l.139.016L79.622,1l.153.111-.063.138L78.1,4.412V6.667c0,.16-.035.183-.188.183" fill="#231f20" fill-rule="evenodd"/>
      </g>
    </g>
  </g>
</svg>
